<?xml version="1.0" standalone="no"?>
<!DOCTYPE svg PUBLIC "-//W3C//DTD SVG 20010904//EN"
 "http://www.w3.org/TR/2001/REC-SVG-20010904/DTD/svg10.dtd">
<svg version="1.0" xmlns="http://www.w3.org/2000/svg"
 width="500.000000pt" height="500.000000pt" viewBox="0 0 500.000000 500.000000"
 preserveAspectRatio="xMidYMid meet">
<metadata>
Created by potrace 1.11, written by Peter Selinger 2001-2013
</metadata>
<g transform="translate(0.000000,500.000000) scale(0.100000,-0.100000)"
fill="#000000" stroke="none">
<path d="M3685 3659 c-22 -5 -49 -11 -60 -13 -39 -8 -100 -47 -150 -96 -50
-49 -51 -49 -140 -60 -88 -10 -130 -17 -130 -20 0 -1 -12 -3 -26 -4 -14 -2
-30 -5 -35 -9 -5 -3 -30 -8 -54 -12 -25 -3 -63 -11 -85 -17 -22 -5 -51 -12
-65 -14 -14 -2 -36 -7 -50 -11 -14 -3 -29 -7 -35 -8 -5 -2 -35 -10 -65 -20
-30 -9 -93 -26 -140 -36 -113 -26 -109 -24 -203 -52 -45 -14 -93 -27 -107 -30
-14 -3 -34 -8 -45 -10 -11 -3 -41 -10 -66 -16 -25 -6 -85 -24 -135 -41 -49
-17 -125 -40 -169 -51 -108 -27 -427 -129 -442 -142 -7 -5 -13 -7 -13 -4 0 14
-362 -133 -485 -198 -60 -31 -145 -75 -189 -97 -65 -32 -148 -79 -254 -143
-95 -57 -205 -119 -286 -160 -119 -60 -158 -95 -181 -158 -9 -26 -28 -55 -41
-64 -31 -20 -31 -54 2 -93 49 -58 91 -70 204 -58 27 3 31 25 16 82 -7 29 -6
28 26 -11 18 -22 45 -48 61 -58 15 -9 48 -34 73 -56 89 -77 88 -77 459 -69
111 2 287 -6 338 -15 35 -7 51 -9 142 -19 22 -2 58 -7 80 -10 22 -3 82 -8 133
-11 52 -4 102 -8 111 -10 23 -4 100 -14 171 -20 72 -7 538 -8 615 -1 33 3 98
8 143 11 46 4 91 8 100 10 32 5 97 14 157 21 54 6 78 9 140 18 27 3 106 18
125 22 58 13 264 79 305 98 28 13 82 36 120 51 90 35 136 56 212 99 l63 36 34
-68 c21 -42 56 -88 92 -123 66 -63 79 -70 112 -58 30 12 41 -17 31 -81 -15
-98 -91 -207 -174 -251 l-45 -24 -22 22 -22 23 22 20 c12 12 22 22 22 23 14
76 4 133 -31 170 -41 44 -91 -9 -124 -131 -13 -52 -20 -214 -10 -254 9 -35 52
-57 107 -54 53 2 173 58 228 105 38 33 43 31 60 -29 12 -44 82 -125 118 -138
15 -5 54 -10 88 -11 75 -3 137 19 236 85 40 27 77 48 81 46 29 -9 147 -3 212
12 68 15 109 57 140 146 17 48 17 212 -1 310 -18 103 -25 149 -29 190 -2 19
-6 53 -9 75 -4 22 -9 65 -12 95 -5 48 -22 154 -39 245 -10 57 -28 120 -36 130
-5 5 -9 17 -9 26 0 40 -132 304 -170 339 -3 3 -31 39 -62 80 -85 113 -212 230
-250 230 -15 0 -36 27 -62 85 -42 91 -142 165 -287 214 -67 23 -99 28 -187 28
-59 1 -125 -3 -147 -8z m764 -1670 c27 -29 71 -121 78 -163 3 -18 -1 -51 -8
-72 -7 -22 -14 -41 -14 -44 -4 -23 -53 -95 -93 -138 -43 -46 -56 -53 -93 -56
-45 -3 -91 20 -104 52 -7 20 40 118 61 126 24 9 54 -12 54 -39 0 -13 -11 -37
-25 -53 -18 -21 -21 -32 -13 -35 17 -6 70 22 63 33 -3 5 -1 11 5 15 5 3 10 21
10 40 0 25 -8 40 -30 58 l-30 25 25 44 c37 66 56 127 56 181 1 39 4 47 20 47
10 0 27 -10 38 -21z m-595 -255 c8 -30 -12 -64 -25 -42 -9 15 0 68 11 68 4 0
11 -12 14 -26z m893 -36 c8 -17 7 -30 -5 -50 -24 -42 -43 -44 -35 -5 3 18 10
39 14 48 5 9 5 19 2 23 -3 3 -2 6 4 6 5 0 15 -10 20 -22z"/>
</g>
</svg>
